# xmcd
#
# Track frame offsets:
#	150
#	20157
#	38162
#	52312
#	72707
#	88365
#	104840
#	122982
#	138945
#	154407
#
# Disc length: 2317 seconds
#
# Revision: 0
# Processed by: cddbd v1.5.1PL0 Copyright (c) Steve Scherf et al.
# Submitted via: dBpowerAMP V4.0
#
DISCID=a4090b0a
DTITLE=Lupita D´alessio - Si yo pudiera detener el tiempo
DYEAR=1900
DGENRE=Ballad
TTITLE0=Costumbres
TTITLE1=Quien da mas
TTITLE2=Si yo pudiera detener el tiempo
TTITLE3=Amor fiel
TTITLE4=La señora
TTITLE5=Hoy no me toques, hoy no
TTITLE6=Me estoy cansando de ti
TTITLE7=La cara la doy yo
TTITLE8=Una noche no
TTITLE9=Remate
EXTD=
EXTT0=
EXTT1=
EXTT2=
EXTT3=
EXTT4=
EXTT5=
EXTT6=
EXTT7=
EXTT8=
EXTT9=
PLAYORDER=
